<svg xmlns="http://www.w3.org/2000/svg" viewBox="0 0 120 120" role="img" aria-label="SchoolOS">
  <defs>
    <linearGradient id="g" x1="0%" y1="0%" x2="100%" y2="100%">
      <stop offset="0%" style="stop-color:#2d6a4f"/>
      <stop offset="100%" style="stop-color:#1b4332"/>
    </linearGradient>
  </defs>
  <rect width="120" height="120" rx="24" fill="url(#g)"/>
  <path fill="#fff" d="M60 28c-12 0-22 8-22 18v6c0 10 10 18 22 18s22-8 22-18v-6c0-10-10-18-22-18zm0 8c6 0 11 4 11 10v4c0 6-5 10-11 10s-11-4-11-10v-4c0-6 5-10 11-10zm-14 32h28v8H46v-8z"/>
</svg>
